<svg xmlns="http://www.w3.org/2000/svg" viewBox="0 0 64 64" fill="none">
  <defs>
    <linearGradient id="bg" x1="6" y1="4" x2="58" y2="60" gradientUnits="userSpaceOnUse">
      <stop stop-color="#0F766E" />
      <stop offset="0.58" stop-color="#0F8A75" />
      <stop offset="1" stop-color="#0D9488" />
    </linearGradient>
    <linearGradient id="sheen" x1="8" y1="8" x2="36" y2="32" gradientUnits="userSpaceOnUse">
      <stop stop-color="white" stop-opacity="0.34" />
      <stop offset="1" stop-color="white" stop-opacity="0" />
    </linearGradient>
  </defs>

  <rect x="4" y="4" width="56" height="56" rx="16" fill="url(#bg)" />
  <rect x="4.5" y="4.5" width="55" height="55" rx="15.5" stroke="white" stroke-opacity="0.22" />
  <path d="M10 10h24c-4 8-12 12-24 12V10z" fill="url(#sheen)" />

  <path d="M32 16l14 5.4v10.2c0 10-7 15.7-14 18.4-7-2.7-14-8.4-14-18.4V21.4L32 16z" fill="white" fill-opacity="0.14" />
  <path d="M32 16l14 5.4v10.2c0 10-7 15.7-14 18.4-7-2.7-14-8.4-14-18.4V21.4L32 16z" stroke="#DCFCE7" stroke-opacity="0.9" stroke-width="2" stroke-linejoin="round" />

  <path d="M39.1 27.8c-1.7-1.9-4-2.9-6.8-2.9-5.4 0-9.4 4.1-9.4 9.5s4 9.5 9.4 9.5c2.8 0 5.1-1 6.8-2.9" stroke="#ECFFFB" stroke-width="3.7" stroke-linecap="round" />

  <circle cx="49.5" cy="14.5" r="1.8" fill="#A7F3D0" fill-opacity="0.95" />
  <circle cx="53" cy="18" r="1.4" fill="#CCFBF1" fill-opacity="0.7" />
  <circle cx="13.5" cy="50.5" r="1.5" fill="#CCFBF1" fill-opacity="0.6" />
</svg>
